<svg width="35" height="30" viewBox="0 0 35 30" fill="none" xmlns="http://www.w3.org/2000/svg">
<path d="M32.5471 13.4241C31.7761 13.3813 31.1301 13.902 30.9552 14.6045L29.0063 14.6259C28.3924 14.633 28.2389 14.28 28.6636 13.8378C28.6636 13.8378 29.2026 13.2708 29.8701 12.5754C30.5376 11.8765 30.6803 11.4806 30.509 11.3095C30.3377 11.1383 29.7844 11.3986 28.9492 12.2723L27.4394 13.852C27.0182 14.2942 26.1794 14.658 25.5654 14.6651L23.8807 14.6829C23.2703 14.6901 23.1133 14.3335 23.5345 13.8913L26.0437 11.2381L27.6571 9.53359C27.782 9.40165 27.8034 9.20551 27.7106 9.0486C27.6178 8.89527 27.4358 8.82395 27.2644 8.86674L24.9801 9.46227L21.4428 10.3859C20.8503 10.5392 20.6147 10.2325 20.9146 9.70119L21.7426 8.23555C22.0425 7.70422 22.7671 7.14436 23.356 6.98389C23.356 6.98389 24.3019 6.73069 25.4691 6.42045C26.6362 6.1102 27.1645 5.77856 27.1074 5.54677C27.0467 5.31141 26.6041 5.21514 25.6618 5.46476L23.9557 5.91764C23.3667 6.07454 23.1276 5.76786 23.4274 5.23653L24.4054 3.50345C25.0871 3.63539 25.8117 3.30731 26.1223 2.62264C26.4435 1.913 26.1651 1.03932 25.4905 0.643489C24.7373 0.201302 23.7736 0.465197 23.3489 1.22119C22.9955 1.85238 23.1311 2.61907 23.6308 3.10048L22.6742 4.79791C22.3744 5.32925 21.9925 5.28645 21.8176 4.70162C21.8176 4.70162 21.5963 3.95277 21.325 3.0256C21.0538 2.09843 20.7789 1.77749 20.5469 1.83811C20.3113 1.89873 20.2614 2.51209 20.6004 3.66748L21.2144 5.7643C21.3857 6.34913 21.2822 7.26203 20.9824 7.79337L20.1578 9.259C19.858 9.79034 19.4725 9.74755 19.2976 9.16272L17.5808 3.41786C17.5272 3.24313 17.3666 3.12544 17.1881 3.12901C17.0097 3.12901 16.8562 3.25382 16.8062 3.42499L15.2107 9.21978C15.0501 9.80817 14.661 9.8581 14.3505 9.33389L13.4939 7.88609C13.1833 7.35832 13.0584 6.45611 13.219 5.86415C13.219 5.86415 13.4724 4.91915 13.7865 3.75663C14.1006 2.59054 14.0792 1.96649 13.8472 1.90231C13.6152 1.83812 13.3082 2.17332 13.0548 3.11118L12.5944 4.81217C12.4373 5.40056 12.0518 5.45406 11.7413 4.92985L10.7276 3.21816C11.1845 2.69395 11.2594 1.9023 10.8204 1.29251C10.3635 0.657756 9.46761 0.465198 8.78943 0.853894C8.03273 1.28538 7.77929 2.24821 8.2219 2.99351C8.58954 3.61756 9.32483 3.88144 9.98873 3.68887L10.981 5.36491C11.2915 5.89268 11.0631 6.19936 10.467 6.05672C10.467 6.05672 9.70676 5.87128 8.76802 5.64306C7.82928 5.41483 7.41522 5.48971 7.35097 5.72507C7.28672 5.95686 7.79358 6.30634 8.96433 6.59162L11.0881 7.10869C11.6842 7.25133 12.4195 7.79693 12.73 8.3247L13.5867 9.77251C13.8972 10.3003 13.6688 10.6105 13.0727 10.4679L7.23317 9.0807C7.05828 9.03791 6.87624 9.11993 6.787 9.27684C6.70134 9.43374 6.72633 9.6263 6.85482 9.75468L11.081 14.0339C11.5093 14.469 11.3629 14.8256 10.7526 14.8327L9.06783 14.8505C8.4539 14.8577 7.60797 14.5118 7.17607 14.0767C7.17607 14.0767 6.48718 13.3849 5.63411 12.529C4.78103 11.6768 4.23135 11.3808 4.05645 11.552C3.88155 11.7196 4.02074 12.1546 4.70963 12.8429L5.95536 14.091C6.38725 14.5225 6.24089 14.879 5.63053 14.8862L3.63882 14.9076C3.41395 14.2514 2.76433 13.7878 2.01477 13.8627C1.23664 13.9412 0.622723 14.6187 0.619154 15.3997C0.615585 16.2698 1.32588 16.9723 2.18966 16.9616C2.91424 16.9545 3.51034 16.4517 3.6781 15.7777L5.62696 15.7563C6.24089 15.7492 6.39438 16.1022 5.96963 16.5444C5.96963 16.5444 5.43065 17.1114 4.76318 17.8068C4.09571 18.5057 3.95294 18.9015 4.12427 19.0727C4.2956 19.2439 4.84885 18.9835 5.68408 18.1099L7.19392 16.5301C7.6151 16.0879 8.45747 15.7242 9.06783 15.7171L10.7526 15.6992C11.3629 15.6921 11.52 16.0487 11.0988 16.4909L6.97619 20.8486C6.85126 20.9805 6.82984 21.1766 6.92264 21.3336C7.01544 21.4869 7.19748 21.5582 7.36881 21.5154L13.1904 19.9963C13.783 19.843 14.0186 20.1496 13.7187 20.681L12.8942 22.1466C12.5944 22.6779 11.8698 23.2378 11.2773 23.3983C11.2773 23.3983 10.3314 23.6479 9.16421 23.9581C7.99703 24.2684 7.46875 24.6 7.52586 24.8354C7.58654 25.0707 8.02914 25.167 8.97145 24.9174L10.6776 24.4645C11.2701 24.3076 11.5057 24.6107 11.2059 25.1456L10.2279 26.8787C9.54613 26.7468 8.82155 27.0748 8.51101 27.7595C8.18977 28.4692 8.47176 29.3428 9.1428 29.7387C9.89593 30.1773 10.8597 29.917 11.2844 29.161C11.6378 28.5298 11.5021 27.7631 11.0024 27.2817L11.959 25.5842C12.2589 25.0493 12.6408 25.0957 12.8157 25.6805C12.8157 25.6805 13.037 26.433 13.3082 27.3566C13.5795 28.2837 13.8543 28.6047 14.0864 28.544C14.3219 28.4834 14.3719 27.8701 14.0328 26.7147L13.4189 24.6179C13.2476 24.033 13.3511 23.1237 13.6509 22.5888L14.4754 21.1232C14.7753 20.5918 15.1607 20.6346 15.3356 21.2194L17.0525 26.9643C17.106 27.139 17.2667 27.2567 17.4451 27.2532C17.6236 27.2496 17.7771 27.1283 17.827 26.9572L19.4226 21.1624C19.5832 20.574 19.9687 20.5205 20.2828 21.0483L21.1394 22.4961C21.45 23.0239 21.5749 23.9296 21.4143 24.518C21.4143 24.518 21.1608 25.463 20.8432 26.6255C20.5291 27.7916 20.5505 28.4157 20.7825 28.4799C21.0145 28.5441 21.3215 28.2088 21.5749 27.271L22.0353 25.57C22.1924 24.9816 22.5779 24.9281 22.8884 25.4523L23.9021 27.164C23.4452 27.6882 23.3703 28.4799 23.8093 29.0896C24.2626 29.7244 25.1621 29.917 25.8403 29.5318C26.597 29.1003 26.8504 28.1339 26.4114 27.3887C26.0402 26.7682 25.3084 26.5007 24.641 26.6933L23.6487 25.0172C23.3382 24.4895 23.5666 24.1828 24.1627 24.3254C24.1627 24.3254 24.9229 24.5109 25.8617 24.7391C26.8004 24.9673 27.2145 24.8924 27.2787 24.6606C27.343 24.4253 26.8361 24.0794 25.6654 23.7941L23.5416 23.277C22.9491 23.1344 22.2102 22.5852 21.8997 22.061L21.043 20.6132C20.7325 20.089 20.9645 19.7752 21.557 19.9178L24.9836 20.7309L27.3965 21.305C27.5714 21.3478 27.757 21.2658 27.8427 21.1089C27.9284 20.952 27.9034 20.7594 27.7749 20.631L26.1437 18.98L23.5487 16.3554C23.1204 15.9203 23.2703 15.5602 23.8771 15.5566L25.5619 15.5388C26.1722 15.5316 27.0217 15.8775 27.4536 16.3126C27.4536 16.3126 28.1425 17.0044 28.9956 17.8603C29.8487 18.7125 30.4019 19.0085 30.5732 18.8373C30.7446 18.6697 30.6089 18.2382 29.9201 17.5464L28.6743 16.2983C28.2425 15.8668 28.3888 15.5102 28.9992 15.5031L30.9909 15.4817C31.2015 16.0986 31.7833 16.5408 32.4722 16.5337C33.3395 16.523 34.0355 15.8062 34.0106 14.9325C33.9856 14.1409 33.3359 13.4705 32.5435 13.4277L32.5471 13.4241ZM20.8467 11.4414L25.0943 10.3359L25.8938 10.1291L25.3263 10.7282L22.3245 13.902C21.9747 14.2693 21.3393 14.5831 20.7825 14.6829C20.6611 13.7879 20.2007 12.957 19.4582 12.3757C19.8152 11.9514 20.372 11.5662 20.8503 11.4414H20.8467ZM16.0424 17.3467C14.8323 16.6621 14.404 15.1322 15.0822 13.9234C15.7675 12.7145 17.2988 12.2866 18.5088 12.9641C19.7188 13.6488 20.1471 15.1786 19.469 16.3875C18.7836 17.5964 17.2524 18.0243 16.0424 17.3467ZM15.8318 10.2646L17.2131 5.24367L18.7015 10.2183C18.8443 10.6925 18.7979 11.3665 18.6195 11.8907C17.7343 11.527 16.7777 11.5448 15.9353 11.8907C15.7604 11.3772 15.7069 10.7246 15.8354 10.2646H15.8318ZM8.64308 10.3074L13.7009 11.5092C14.1649 11.6197 14.711 11.9727 15.0787 12.3721C14.7253 12.6503 14.4183 12.9998 14.1827 13.4134C13.9436 13.8342 13.8044 14.2871 13.7508 14.74C13.219 14.633 12.6372 14.3513 12.3052 14.0125L8.64308 10.3074ZM13.7937 18.9408L8.75015 20.2566L12.3195 16.4838C12.655 16.1307 13.2511 15.8312 13.7901 15.7171C13.9364 16.6157 14.4183 17.4395 15.1929 18.0029C14.8359 18.4272 14.2755 18.8159 13.7972 18.9408H13.7937ZM18.8086 20.1175L17.4273 25.1385L15.9389 20.1639C15.7961 19.6825 15.8461 18.9942 16.0317 18.4629C16.9062 18.791 17.8449 18.7553 18.6659 18.4023C18.8693 18.9301 18.9407 19.6254 18.8051 20.1175H18.8086ZM25.3905 19.4614L25.9973 20.0747L25.1193 19.8679L20.9395 18.873C20.4434 18.7553 19.8509 18.3595 19.4868 17.9244C19.833 17.6463 20.1364 17.3039 20.3685 16.8939C20.5969 16.4873 20.729 16.0558 20.7896 15.6208C21.3465 15.7099 21.9782 16.0059 22.3352 16.3661L25.3905 19.4578V19.4614Z" fill="white"/>
</svg>
