<svg width="34" height="35" viewBox="0 0 34 35" fill="none" xmlns="http://www.w3.org/2000/svg">
<path d="M17.2405 17.5146L18.8396 32.4598C18.9431 33.4084 18.1971 34.2393 17.2405 34.2393C16.2839 34.2393 15.5379 33.412 15.6414 32.4598L17.2405 17.5146Z" fill="#38D200"/>
<path d="M17.24 17.5146L11.1471 31.2545C10.758 32.1282 9.69791 32.4741 8.86982 31.9963C8.04173 31.5184 7.80971 30.4272 8.37367 29.657L17.24 17.5146Z" fill="#38D200"/>
<path d="M17.2404 17.5146L5.08675 26.3726C4.3122 26.9361 3.22355 26.7043 2.74525 25.877C2.26696 25.0497 2.61317 23.9905 3.48766 23.6018L17.2404 17.5146Z" fill="#38D200"/>
<path d="M17.2403 17.5144L2.28111 19.112C1.33166 19.2154 0.5 18.4701 0.5 17.5144C0.5 16.5587 1.32809 15.8134 2.28111 15.9168L17.2403 17.5144Z" fill="#38D200"/>
<path d="M17.2403 17.515L3.4447 11.4099C3.05921 11.2388 2.74512 10.7573 2.74512 10.3366V7.81894C2.74512 7.45877 3.15558 7.25194 3.4447 7.46234L17.2403 17.515Z" fill="#38D200"/>
<path d="M17.24 17.5147L8.37367 5.37244C7.80971 4.59861 8.04173 3.51098 8.86982 3.03313C9.69791 2.55528 10.758 2.90119 11.1471 3.77486L17.24 17.5147Z" fill="#38D200"/>
<path d="M17.2405 17.5147L15.6414 2.56948C15.5379 1.62092 16.2839 0.790039 17.2405 0.790039C18.1971 0.790039 18.9431 1.61736 18.8396 2.56948L17.2405 17.5147Z" fill="#38D200"/>
<path d="M17.2402 17.5147L23.3331 3.77486C23.7222 2.90119 24.7823 2.55528 25.6104 3.03313C26.4385 3.51098 26.6705 4.60218 26.1065 5.37244L17.2402 17.5147Z" fill="#38D200"/>
<path d="M17.2402 17.515L31.0358 7.46234C31.3285 7.25194 31.7354 7.45877 31.7354 7.81894V10.3366C31.7354 10.7573 31.4213 11.2423 31.0358 11.4099L17.2402 17.515Z" fill="#38D200"/>
<path d="M17.2402 17.5144L32.1994 15.9168C33.1489 15.8134 33.9805 16.5587 33.9805 17.5144C33.9805 18.4701 33.1525 19.2154 32.1994 19.112L17.2402 17.5144Z" fill="#38D200"/>
<path d="M17.2402 17.5146L30.993 23.6018C31.8675 23.9905 32.2137 25.0497 31.7354 25.877C31.2571 26.7043 30.1649 26.9361 29.3939 26.3726L17.2402 17.5146Z" fill="#38D200"/>
<path d="M17.2402 17.5146L26.1065 29.657C26.6705 30.4308 26.4385 31.5184 25.6104 31.9963C24.7823 32.4741 23.7222 32.1282 23.3331 31.2545L17.2402 17.5146Z" fill="#38D200"/>
</svg>
