<svg width="33" height="31" viewBox="0 0 33 31" fill="none" xmlns="http://www.w3.org/2000/svg">
<path d="M16.8793 3.66895H16.3511V27.2011H16.8793V3.66895Z" fill="white"/>
<path d="M16.6151 3.66927C17.6185 3.66927 18.4319 2.85662 18.4319 1.85417C18.4319 0.851713 17.6185 0.0390625 16.6151 0.0390625C15.6118 0.0390625 14.7983 0.851713 14.7983 1.85417C14.7983 2.85662 15.6118 3.66927 16.6151 3.66927Z" fill="white"/>
<path d="M16.6151 30.8353C17.6185 30.8353 18.4319 30.0226 18.4319 29.0202C18.4319 28.0177 17.6185 27.2051 16.6151 27.2051C15.6118 27.2051 14.7983 28.0177 14.7983 29.0202C14.7983 30.0226 15.6118 30.8353 16.6151 30.8353Z" fill="white"/>
<path d="M28.3941 15.1729H4.83984V15.7006H28.3941V15.1729Z" fill="white"/>
<path d="M31.9797 15.8483C32.2091 14.8725 31.6033 13.8955 30.6265 13.6663C29.6497 13.437 28.6718 14.0423 28.4423 15.0182C28.2129 15.994 28.8187 16.971 29.7955 17.2003C30.7723 17.4295 31.7502 16.8242 31.9797 15.8483Z" fill="white"/>
<path d="M4.78679 15.8523C5.01626 14.8764 4.41042 13.8994 3.43362 13.6702C2.45681 13.4409 1.47894 14.0462 1.24947 15.0221C1.02 15.9979 1.62584 16.9749 2.60265 17.2042C3.57945 17.4334 4.55732 16.8281 4.78679 15.8523Z" fill="white"/>
<path d="M24.7569 6.92958L8.10156 23.5693L8.47763 23.945L25.133 7.30529L24.7569 6.92958Z" fill="white"/>
<path d="M26.2309 7.64584C27.2343 7.64584 28.0477 6.83318 28.0477 5.83073C28.0477 4.82828 27.2343 4.01562 26.2309 4.01562C25.2275 4.01562 24.4141 4.82828 24.4141 5.83073C24.4141 6.83318 25.2275 7.64584 26.2309 7.64584Z" fill="white"/>
<path d="M7.00284 26.8558C8.00623 26.8558 8.81964 26.0431 8.81964 25.0407C8.81964 24.0382 8.00623 23.2256 7.00284 23.2256C5.99945 23.2256 5.18604 24.0382 5.18604 25.0407C5.18604 26.0431 5.99945 26.8558 7.00284 26.8558Z" fill="white"/>
<path d="M8.47518 6.92702L8.09912 7.30273L24.7545 23.9425L25.1305 23.5668L8.47518 6.92702Z" fill="white"/>
<path d="M26.2309 26.8558C27.2343 26.8558 28.0477 26.0431 28.0477 25.0407C28.0477 24.0382 27.2343 23.2256 26.2309 23.2256C25.2275 23.2256 24.4141 24.0382 24.4141 25.0407C24.4141 26.0431 25.2275 26.8558 26.2309 26.8558Z" fill="white"/>
<path d="M5.71779 7.11798C5.00748 6.40834 5.00748 5.25652 5.71779 4.54688C6.42809 3.83724 7.581 3.83724 8.2913 4.54688C9.0016 5.25652 9.0016 6.40834 8.2913 7.11798C7.581 7.82762 6.42809 7.82762 5.71779 7.11798Z" fill="white"/>
</svg>
