<svg width="24" height="24" viewBox="0 0 24 24" fill="none" xmlns="http://www.w3.org/2000/svg">
<path d="M12.0812 12.3004L3.15779 17.4462C2.59026 17.7743 2.43321 18.5196 2.8187 19.0474C3.20419 19.5751 3.96447 19.6536 4.4499 19.215L12.0812 12.2969V12.3004Z" fill="white"/>
<path d="M12.0809 12.3008L6.93029 21.2158C6.60191 21.7828 6.84106 22.5067 7.43714 22.7742C8.03679 23.0381 8.73282 22.7278 8.93271 22.1038L12.0809 12.3008Z" fill="white"/>
<path d="M12.0811 12.3008V22.5959C12.0811 23.252 12.6486 23.762 13.3018 23.6907C13.955 23.6193 14.4011 23.0024 14.2619 22.3641L12.0811 12.3043V12.3008Z" fill="white"/>
<path d="M12.0807 12.3008L17.2313 21.2158C17.5597 21.7828 18.3057 21.9397 18.834 21.5546C19.3622 21.1695 19.4407 20.4099 19.0017 19.9249L12.0771 12.3008H12.0807Z" fill="white"/>
<path d="M12.0811 12.3008L20.8224 17.3431C21.1865 17.5535 21.7647 17.5214 22.1038 17.2754L23.0818 16.5622C23.3745 16.3518 23.2996 15.8989 22.9569 15.7883L12.0811 12.3008Z" fill="white"/>
<path d="M12.0811 12.301H22.3858C23.0426 12.301 23.553 11.734 23.4816 11.0814C23.4102 10.4288 22.7927 9.98308 22.1538 10.1222L12.0846 12.301H12.0811Z" fill="white"/>
<path d="M12.0811 12.3005L21.0045 7.15476C21.572 6.82668 21.729 6.08139 21.3436 5.55362C20.9581 5.02585 20.1978 4.94739 19.7124 5.38601L12.0811 12.3041V12.3005Z" fill="white"/>
<path d="M12.0811 12.3002L17.2316 3.38518C17.56 2.81819 17.3209 2.09428 16.7248 1.82682C16.1251 1.56294 15.4291 1.87318 15.2292 2.49724L12.0811 12.3002Z" fill="white"/>
<path d="M12.081 12.3005V0.889252C12.081 0.529084 11.6705 0.322255 11.3814 0.53265L10.4034 1.24585C10.0643 1.49548 9.8573 2.03394 9.94654 2.44403L12.081 12.3005Z" fill="white"/>
<path d="M12.0807 12.3004L6.93012 3.38531C6.60174 2.81831 5.85574 2.6614 5.32748 3.04653C4.79921 3.43166 4.72069 4.19123 5.15972 4.6762L12.0843 12.3004H12.0807Z" fill="white"/>
<path d="M12.0811 12.3005L3.15772 7.15476C2.59019 6.82669 1.86561 7.06562 1.59791 7.66114C1.33378 8.26023 1.64431 8.95561 2.26895 9.15531L12.0811 12.3005Z" fill="white"/>
<path d="M12.0811 12.3008H1.7763C1.11953 12.3008 0.609114 12.8678 0.680502 13.5204C0.751889 14.1729 1.36939 14.6187 2.00831 14.4796L12.0775 12.3008H12.0811Z" fill="white"/>
</svg>
