<svg width="23" height="22" viewBox="0 0 23 22" fill="none" xmlns="http://www.w3.org/2000/svg">
<path d="M11.8563 2.56934H11.4824V19.2244H11.8563V2.56934Z" fill="#C3AA67"/>
<path d="M11.6696 2.5693C12.3798 2.5693 12.9555 1.99414 12.9555 1.28465C12.9555 0.575158 12.3798 0 11.6696 0C10.9595 0 10.3838 0.575158 10.3838 1.28465C10.3838 1.99414 10.9595 2.5693 11.6696 2.5693Z" fill="#C3AA67"/>
<path d="M11.6696 21.7959C12.3798 21.7959 12.9555 21.2207 12.9555 20.5112C12.9555 19.8017 12.3798 19.2266 11.6696 19.2266C10.9595 19.2266 10.3838 19.8017 10.3838 20.5112C10.3838 21.2207 10.9595 21.7959 11.6696 21.7959Z" fill="#C3AA67"/>
<path d="M20.0056 10.7119H3.33496V11.0854H20.0056V10.7119Z" fill="#C3AA67"/>
<path d="M22.5437 11.1885C22.7061 10.4978 22.2773 9.80639 21.586 9.64414C20.8947 9.48188 20.2026 9.91027 20.0402 10.601C19.8778 11.2916 20.3065 11.9831 20.9979 12.1454C21.6892 12.3076 22.3813 11.8792 22.5437 11.1885Z" fill="#C3AA67"/>
<path d="M3.29762 11.1915C3.46003 10.5008 3.03124 9.80932 2.33991 9.64707C1.64857 9.48481 0.956469 9.9132 0.794063 10.6039C0.631656 11.2946 1.06044 11.986 1.75178 12.1483C2.44312 12.3105 3.13521 11.8822 3.29762 11.1915Z" fill="#C3AA67"/>
<path d="M17.4315 4.87741L5.64355 16.6543L5.90972 16.9202L17.6976 5.14332L17.4315 4.87741Z" fill="#C3AA67"/>
<path d="M18.4743 5.38376C19.1845 5.38376 19.7602 4.8086 19.7602 4.0991C19.7602 3.38961 19.1845 2.81445 18.4743 2.81445C17.7642 2.81445 17.1885 3.38961 17.1885 4.0991C17.1885 4.8086 17.7642 5.38376 18.4743 5.38376Z" fill="#C3AA67"/>
<path d="M4.86593 18.9795C5.57609 18.9795 6.15179 18.4043 6.15179 17.6948C6.15179 16.9853 5.57609 16.4102 4.86593 16.4102C4.15577 16.4102 3.58008 16.9853 3.58008 17.6948C3.58008 18.4043 4.15577 18.9795 4.86593 18.9795Z" fill="#C3AA67"/>
<path d="M5.90776 4.87471L5.6416 5.14062L17.4295 16.9175L17.6957 16.6516L5.90776 4.87471Z" fill="#C3AA67"/>
<path d="M18.4743 18.9795C19.1845 18.9795 19.7602 18.4043 19.7602 17.6948C19.7602 16.9853 19.1845 16.4102 18.4743 16.4102C17.7642 16.4102 17.1885 16.9853 17.1885 17.6948C17.1885 18.4043 17.7642 18.9795 18.4743 18.9795Z" fill="#C3AA67"/>
<path d="M3.95614 5.00988C3.45342 4.50763 3.45342 3.69242 3.95614 3.19016C4.45886 2.68791 5.27484 2.68791 5.77756 3.19016C6.28028 3.69242 6.28028 4.50763 5.77756 5.00988C5.27484 5.51213 4.45886 5.51213 3.95614 5.00988Z" fill="#C3AA67"/>
</svg>
